<svg id="visual" viewBox="0 0 960 200" width="960" height="200" xmlns="http://www.w3.org/2000/svg" xmlns:xlink="http://www.w3.org/1999/xlink" version="1.1"><rect x="0" y="0" width="960" height="200" fill="#090a0b"></rect><path d="M0 126L22.8 126.2C45.7 126.3 91.3 126.7 137 126.2C182.7 125.7 228.3 124.3 274 129.5C319.7 134.7 365.3 146.3 411.2 149.5C457 152.7 503 147.3 548.8 145.8C594.7 144.3 640.3 146.7 686 150.2C731.7 153.7 777.3 158.3 823 159.3C868.7 160.3 914.3 157.7 937.2 156.3L960 155L960 0L937.2 0C914.3 0 868.7 0 823 0C777.3 0 731.7 0 686 0C640.3 0 594.7 0 548.8 0C503 0 457 0 411.2 0C365.3 0 319.7 0 274 0C228.3 0 182.7 0 137 0C91.3 0 45.7 0 22.8 0L0 0Z" fill="#090a0b"></path><path d="M0 124L22.8 120.3C45.7 116.7 91.3 109.3 137 106.2C182.7 103 228.3 104 274 107C319.7 110 365.3 115 411.2 121.2C457 127.3 503 134.7 548.8 134C594.7 133.3 640.3 124.7 686 119.5C731.7 114.3 777.3 112.7 823 113.2C868.7 113.7 914.3 116.3 937.2 117.7L960 119L960 0L937.2 0C914.3 0 868.7 0 823 0C777.3 0 731.7 0 686 0C640.3 0 594.7 0 548.8 0C503 0 457 0 411.2 0C365.3 0 319.7 0 274 0C228.3 0 182.7 0 137 0C91.3 0 45.7 0 22.8 0L0 0Z" fill="#101112"></path><path d="M0 115L22.8 113.3C45.7 111.7 91.3 108.3 137 105.3C182.7 102.3 228.3 99.7 274 100.3C319.7 101 365.3 105 411.2 108.2C457 111.3 503 113.7 548.8 116.3C594.7 119 640.3 122 686 117.3C731.7 112.7 777.3 100.3 823 99C868.7 97.7 914.3 107.3 937.2 112.2L960 117L960 0L937.2 0C914.3 0 868.7 0 823 0C777.3 0 731.7 0 686 0C640.3 0 594.7 0 548.8 0C503 0 457 0 411.2 0C365.3 0 319.7 0 274 0C228.3 0 182.7 0 137 0C91.3 0 45.7 0 22.8 0L0 0Z" fill="#151617"></path><path d="M0 90L22.8 85.7C45.7 81.3 91.3 72.7 137 70C182.7 67.3 228.3 70.7 274 74C319.7 77.3 365.3 80.7 411.2 84.5C457 88.3 503 92.7 548.8 94C594.7 95.3 640.3 93.7 686 92.8C731.7 92 777.3 92 823 91.5C868.7 91 914.3 90 937.2 89.5L960 89L960 0L937.2 0C914.3 0 868.7 0 823 0C777.3 0 731.7 0 686 0C640.3 0 594.7 0 548.8 0C503 0 457 0 411.2 0C365.3 0 319.7 0 274 0C228.3 0 182.7 0 137 0C91.3 0 45.7 0 22.8 0L0 0Z" fill="#1a1a1c"></path><path d="M0 78L22.8 77.2C45.7 76.3 91.3 74.7 137 71.8C182.7 69 228.3 65 274 65.7C319.7 66.3 365.3 71.7 411.2 71.3C457 71 503 65 548.8 60.5C594.7 56 640.3 53 686 53.5C731.7 54 777.3 58 823 62.7C868.7 67.3 914.3 72.7 937.2 75.3L960 78L960 0L937.2 0C914.3 0 868.7 0 823 0C777.3 0 731.7 0 686 0C640.3 0 594.7 0 548.8 0C503 0 457 0 411.2 0C365.3 0 319.7 0 274 0C228.3 0 182.7 0 137 0C91.3 0 45.7 0 22.8 0L0 0Z" fill="#1f1f21"></path><path d="M0 52L22.8 52.3C45.7 52.7 91.3 53.3 137 54C182.7 54.7 228.3 55.3 274 55.8C319.7 56.3 365.3 56.7 411.2 55.7C457 54.7 503 52.3 548.8 52.3C594.7 52.3 640.3 54.7 686 51.3C731.7 48 777.3 39 823 39.2C868.7 39.3 914.3 48.7 937.2 53.3L960 58L960 0L937.2 0C914.3 0 868.7 0 823 0C777.3 0 731.7 0 686 0C640.3 0 594.7 0 548.8 0C503 0 457 0 411.2 0C365.3 0 319.7 0 274 0C228.3 0 182.7 0 137 0C91.3 0 45.7 0 22.8 0L0 0Z" fill="#232326"></path><path d="M0 18L22.8 20.2C45.7 22.3 91.3 26.7 137 27.7C182.7 28.7 228.3 26.3 274 24C319.7 21.7 365.3 19.3 411.2 20.7C457 22 503 27 548.8 27.3C594.7 27.7 640.3 23.3 686 22C731.7 20.7 777.3 22.3 823 24.5C868.7 26.7 914.3 29.3 937.2 30.7L960 32L960 0L937.2 0C914.3 0 868.7 0 823 0C777.3 0 731.7 0 686 0C640.3 0 594.7 0 548.8 0C503 0 457 0 411.2 0C365.3 0 319.7 0 274 0C228.3 0 182.7 0 137 0C91.3 0 45.7 0 22.8 0L0 0Z" fill="#28282b"></path></svg>