<svg id="visual" viewBox="0 0 960 540" width="960" height="540" xmlns="http://www.w3.org/2000/svg" xmlns:xlink="http://www.w3.org/1999/xlink" version="1.1"><rect x="0" y="0" width="960" height="540" fill="#090a0b"></rect><path d="M502 0L437 0L437 42L466 42L466 83L459 83L459 125L549 125L549 166L427 166L427 208L562 208L562 249L477 249L477 291L380 291L380 332L516 332L516 374L451 374L451 415L521 415L521 457L390 457L390 498L536 498L536 540L0 540L0 498L0 498L0 457L0 457L0 415L0 415L0 374L0 374L0 332L0 332L0 291L0 291L0 249L0 249L0 208L0 208L0 166L0 166L0 125L0 125L0 83L0 83L0 42L0 42L0 0L0 0Z" fill="#9900ff"></path><path d="M249 0L305 0L305 42L301 42L301 83L354 83L354 125L368 125L368 166L269 166L269 208L241 208L241 249L334 249L334 291L281 291L281 332L377 332L377 374L252 374L252 415L380 415L380 457L295 457L295 498L316 498L316 540L0 540L0 498L0 498L0 457L0 457L0 415L0 415L0 374L0 374L0 332L0 332L0 291L0 291L0 249L0 249L0 208L0 208L0 166L0 166L0 125L0 125L0 83L0 83L0 42L0 42L0 0L0 0Z" fill="#0092ff"></path><path d="M200 0L187 0L187 42L104 42L104 83L239 83L239 125L94 125L94 166L111 166L111 208L180 208L180 249L175 249L175 291L94 291L94 332L110 332L110 374L119 374L119 415L163 415L163 457L91 457L91 498L204 498L204 540L0 540L0 498L0 498L0 457L0 457L0 415L0 415L0 374L0 374L0 332L0 332L0 291L0 291L0 249L0 249L0 208L0 208L0 166L0 166L0 125L0 125L0 83L0 83L0 42L0 42L0 0L0 0Z" fill="#39bde2"></path></svg>