<svg id="visual" viewBox="0 0 900 600" width="900" height="600" xmlns="http://www.w3.org/2000/svg" xmlns:xlink="http://www.w3.org/1999/xlink" version="1.1"><rect x="0" y="0" width="900" height="600" fill="#28282b"></rect><path d="M0 196L21.5 197.7C43 199.3 86 202.7 128.8 211.2C171.7 219.7 214.3 233.3 257.2 225C300 216.7 343 186.3 385.8 182.5C428.7 178.7 471.3 201.3 514.2 207.5C557 213.7 600 203.3 642.8 196.3C685.7 189.3 728.3 185.7 771.2 186C814 186.3 857 190.7 878.5 192.8L900 195L900 0L878.5 0C857 0 814 0 771.2 0C728.3 0 685.7 0 642.8 0C600 0 557 0 514.2 0C471.3 0 428.7 0 385.8 0C343 0 300 0 257.2 0C214.3 0 171.7 0 128.8 0C86 0 43 0 21.5 0L0 0Z" fill="#28282b"></path><path d="M0 190L21.5 187C43 184 86 178 128.8 175.8C171.7 173.7 214.3 175.3 257.2 182C300 188.7 343 200.3 385.8 197C428.7 193.7 471.3 175.3 514.2 167.7C557 160 600 163 642.8 159.7C685.7 156.3 728.3 146.7 771.2 149.8C814 153 857 169 878.5 177L900 185L900 0L878.5 0C857 0 814 0 771.2 0C728.3 0 685.7 0 642.8 0C600 0 557 0 514.2 0C471.3 0 428.7 0 385.8 0C343 0 300 0 257.2 0C214.3 0 171.7 0 128.8 0C86 0 43 0 21.5 0L0 0Z" fill="#222225"></path><path d="M0 117L21.5 117.7C43 118.3 86 119.7 128.8 119.5C171.7 119.3 214.3 117.7 257.2 123.2C300 128.7 343 141.3 385.8 144.8C428.7 148.3 471.3 142.7 514.2 138C557 133.3 600 129.7 642.8 135.7C685.7 141.7 728.3 157.3 771.2 158.7C814 160 857 147 878.5 140.5L900 134L900 0L878.5 0C857 0 814 0 771.2 0C728.3 0 685.7 0 642.8 0C600 0 557 0 514.2 0C471.3 0 428.7 0 385.8 0C343 0 300 0 257.2 0C214.3 0 171.7 0 128.8 0C86 0 43 0 21.5 0L0 0Z" fill="#1d1d1f"></path><path d="M0 129L21.5 128.2C43 127.3 86 125.7 128.8 121.7C171.7 117.7 214.3 111.3 257.2 111C300 110.7 343 116.3 385.8 115C428.7 113.7 471.3 105.3 514.2 107.8C557 110.3 600 123.7 642.8 127.7C685.7 131.7 728.3 126.3 771.2 126.2C814 126 857 131 878.5 133.5L900 136L900 0L878.5 0C857 0 814 0 771.2 0C728.3 0 685.7 0 642.8 0C600 0 557 0 514.2 0C471.3 0 428.7 0 385.8 0C343 0 300 0 257.2 0C214.3 0 171.7 0 128.8 0C86 0 43 0 21.5 0L0 0Z" fill="#171719"></path><path d="M0 67L21.5 65.7C43 64.3 86 61.7 128.8 63.3C171.7 65 214.3 71 257.2 69.7C300 68.3 343 59.7 385.8 58.5C428.7 57.3 471.3 63.7 514.2 71.8C557 80 600 90 642.8 87.2C685.7 84.3 728.3 68.7 771.2 61.8C814 55 857 57 878.5 58L900 59L900 0L878.5 0C857 0 814 0 771.2 0C728.3 0 685.7 0 642.8 0C600 0 557 0 514.2 0C471.3 0 428.7 0 385.8 0C343 0 300 0 257.2 0C214.3 0 171.7 0 128.8 0C86 0 43 0 21.5 0L0 0Z" fill="#111213"></path><path d="M0 46L21.5 44C43 42 86 38 128.8 37.7C171.7 37.3 214.3 40.7 257.2 39.7C300 38.7 343 33.3 385.8 30.7C428.7 28 471.3 28 514.2 33.5C557 39 600 50 642.8 54.2C685.7 58.3 728.3 55.7 771.2 54.8C814 54 857 55 878.5 55.5L900 56L900 0L878.5 0C857 0 814 0 771.2 0C728.3 0 685.7 0 642.8 0C600 0 557 0 514.2 0C471.3 0 428.7 0 385.8 0C343 0 300 0 257.2 0C214.3 0 171.7 0 128.8 0C86 0 43 0 21.5 0L0 0Z" fill="#090a0b"></path></svg>