<svg id="visual" viewBox="0 0 900 600" width="900" height="600" xmlns="http://www.w3.org/2000/svg" xmlns:xlink="http://www.w3.org/1999/xlink" version="1.1"><rect x="0" y="0" width="900" height="600" fill="#28282b"></rect><path d="M0 158L21.5 155.5C43 153 86 148 128.8 149.3C171.7 150.7 214.3 158.3 257.2 164.7C300 171 343 176 385.8 173.2C428.7 170.3 471.3 159.7 514.2 159.2C557 158.7 600 168.3 642.8 173.5C685.7 178.7 728.3 179.3 771.2 175.3C814 171.3 857 162.7 878.5 158.3L900 154L900 0L878.5 0C857 0 814 0 771.2 0C728.3 0 685.7 0 642.8 0C600 0 557 0 514.2 0C471.3 0 428.7 0 385.8 0C343 0 300 0 257.2 0C214.3 0 171.7 0 128.8 0C86 0 43 0 21.5 0L0 0Z" fill="#28282b"></path><path d="M0 158L21.5 156.3C43 154.7 86 151.3 128.8 147.8C171.7 144.3 214.3 140.7 257.2 140.8C300 141 343 145 385.8 150.2C428.7 155.3 471.3 161.7 514.2 155.2C557 148.7 600 129.3 642.8 128.2C685.7 127 728.3 144 771.2 151.5C814 159 857 157 878.5 156L900 155L900 0L878.5 0C857 0 814 0 771.2 0C728.3 0 685.7 0 642.8 0C600 0 557 0 514.2 0C471.3 0 428.7 0 385.8 0C343 0 300 0 257.2 0C214.3 0 171.7 0 128.8 0C86 0 43 0 21.5 0L0 0Z" fill="#222225"></path><path d="M0 132L21.5 130.7C43 129.3 86 126.7 128.8 125.8C171.7 125 214.3 126 257.2 125.5C300 125 343 123 385.8 120C428.7 117 471.3 113 514.2 108.3C557 103.7 600 98.3 642.8 95.7C685.7 93 728.3 93 771.2 91.3C814 89.7 857 86.3 878.5 84.7L900 83L900 0L878.5 0C857 0 814 0 771.2 0C728.3 0 685.7 0 642.8 0C600 0 557 0 514.2 0C471.3 0 428.7 0 385.8 0C343 0 300 0 257.2 0C214.3 0 171.7 0 128.8 0C86 0 43 0 21.5 0L0 0Z" fill="#1d1d1f"></path><path d="M0 62L21.5 65.8C43 69.7 86 77.3 128.8 82.5C171.7 87.7 214.3 90.3 257.2 88.5C300 86.7 343 80.3 385.8 75.8C428.7 71.3 471.3 68.7 514.2 74C557 79.3 600 92.7 642.8 98.7C685.7 104.7 728.3 103.3 771.2 99C814 94.7 857 87.3 878.5 83.7L900 80L900 0L878.5 0C857 0 814 0 771.2 0C728.3 0 685.7 0 642.8 0C600 0 557 0 514.2 0C471.3 0 428.7 0 385.8 0C343 0 300 0 257.2 0C214.3 0 171.7 0 128.8 0C86 0 43 0 21.5 0L0 0Z" fill="#171719"></path><path d="M0 58L21.5 60.3C43 62.7 86 67.3 128.8 71C171.7 74.7 214.3 77.3 257.2 76.8C300 76.3 343 72.7 385.8 68.2C428.7 63.7 471.3 58.3 514.2 55.5C557 52.7 600 52.3 642.8 50.3C685.7 48.3 728.3 44.7 771.2 46.5C814 48.3 857 55.7 878.5 59.3L900 63L900 0L878.5 0C857 0 814 0 771.2 0C728.3 0 685.7 0 642.8 0C600 0 557 0 514.2 0C471.3 0 428.7 0 385.8 0C343 0 300 0 257.2 0C214.3 0 171.7 0 128.8 0C86 0 43 0 21.5 0L0 0Z" fill="#111213"></path><path d="M0 37L21.5 38.8C43 40.7 86 44.3 128.8 41.8C171.7 39.3 214.3 30.7 257.2 28.5C300 26.3 343 30.7 385.8 32.3C428.7 34 471.3 33 514.2 35.3C557 37.7 600 43.3 642.8 40.8C685.7 38.3 728.3 27.7 771.2 25.2C814 22.7 857 28.3 878.5 31.2L900 34L900 0L878.5 0C857 0 814 0 771.2 0C728.3 0 685.7 0 642.8 0C600 0 557 0 514.2 0C471.3 0 428.7 0 385.8 0C343 0 300 0 257.2 0C214.3 0 171.7 0 128.8 0C86 0 43 0 21.5 0L0 0Z" fill="#090a0b"></path></svg>