<svg id="visual" viewBox="0 0 900 600" width="900" height="600" xmlns="http://www.w3.org/2000/svg" xmlns:xlink="http://www.w3.org/1999/xlink" version="1.1"><g transform="translate(451.0507747876063 337.7346003796648)"><path d="M140 -175.8C179.7 -133.5 209 -87.8 206 -45.1C203 -2.5 167.8 37 142.1 82.7C116.5 128.4 100.5 180.2 72 185.1C43.5 190 2.5 147.9 -54.9 134.2C-112.3 120.5 -186 135.2 -203.7 113.4C-221.5 91.5 -183.1 33 -167.9 -25.5C-152.6 -83.9 -160.5 -142.3 -136.4 -187.4C-112.3 -232.5 -56.1 -264.2 -3 -260.7C50.1 -257.1 100.3 -218.2 140 -175.8" fill="#39bde2"></path></g></svg>