<svg id="visual" viewBox="0 0 900 600" width="900" height="600" xmlns="http://www.w3.org/2000/svg" xmlns:xlink="http://www.w3.org/1999/xlink" version="1.1"><g transform="translate(432.5778496319417 277.0561357064055)"><path d="M141.5 -169.7C159.9 -153.1 135.4 -86.3 147.9 -24.7C160.5 37 210.1 93.5 204.8 132.8C199.4 172 139 194.1 81.7 207.8C24.3 221.5 -30.1 226.8 -71.9 207.3C-113.8 187.9 -143.1 143.7 -157.9 99.9C-172.7 56.1 -173 12.8 -165.6 -29.2C-158.2 -71.2 -143.1 -111.8 -114.2 -126.6C-85.3 -141.3 -42.6 -130.1 9.4 -141.4C61.5 -152.6 123 -186.2 141.5 -169.7" fill="#39bde2"></path></g></svg>