<svg id="visual" viewBox="0 0 900 600" width="900" height="600" xmlns="http://www.w3.org/2000/svg" xmlns:xlink="http://www.w3.org/1999/xlink" version="1.1"><g transform="translate(420.8390403252394 250.83639946129207)"><path d="M94.2 -86.7C140.1 -73.7 207.9 -61.1 239 -21.9C270.1 17.4 264.5 83.5 235.7 138.5C206.8 193.6 154.7 237.8 95.2 257.8C35.7 277.8 -31.2 273.8 -64.9 236.4C-98.6 199 -99.1 128.2 -120.7 76.6C-142.2 25 -184.9 -7.6 -197.5 -52C-210.2 -96.5 -192.8 -152.8 -154.9 -167.3C-117 -181.8 -58.5 -154.4 -17.2 -133.9C24.1 -113.4 48.2 -99.8 94.2 -86.7" fill="#ddbcff"></path></g></svg>