<svg id="visual" viewBox="0 0 900 600" width="900" height="600" xmlns="http://www.w3.org/2000/svg" xmlns:xlink="http://www.w3.org/1999/xlink" version="1.1"><g transform="translate(465.6026626506933 335.7759882438256)"><path d="M140.6 -194.8C159.1 -152.1 134.9 -85.8 147.7 -24.4C160.5 37 210.1 93.5 203.5 129.3C196.9 165.2 134 180.3 80.2 184.1C26.4 187.9 -18.2 180.4 -50.6 159.7C-82.9 138.9 -103 105 -138.1 68.1C-173.2 31.2 -223.5 -8.5 -233.4 -56.6C-243.4 -104.7 -213 -161.1 -167.3 -199.1C-121.7 -237 -60.9 -256.5 0.1 -256.6C61.1 -256.8 122.1 -237.5 140.6 -194.8" fill="#ddbcff"></path></g></svg>